<svg width="89" height="85" viewBox="0 0 89 85" fill="none" xmlns="http://www.w3.org/2000/svg">
<path d="M1.5 14.9352C1.5 14.797 1.55717 14.665 1.65795 14.5705L12.658 4.25322C12.9772 3.95374 13.5 4.18013 13.5 4.61792V70.0648C13.5 70.203 13.4428 70.335 13.3421 70.4295L14.3682 71.5236L13.3421 70.4295L2.34205 80.7468C2.02275 81.0463 1.5 80.8199 1.5 80.3821V14.9352Z" fill="white" stroke="black" stroke-width="3"/>
<path d="M8.5 14.9352C8.5 14.797 8.55717 14.665 8.65795 14.5705L19.658 4.25322C19.9772 3.95374 20.5 4.18013 20.5 4.61792V70.0648C20.5 70.203 20.4428 70.335 20.3421 70.4295L21.3682 71.5236L20.3421 70.4295L9.34205 80.7468C9.02275 81.0463 8.5 80.8199 8.5 80.3821V14.9352Z" fill="white" stroke="black" stroke-width="3"/>
<path d="M13.4312 28.5188C13.2481 28.3166 13.2608 28.005 13.4597 27.8185L25.5418 16.4863C25.7457 16.2951 26.0667 16.3082 26.2544 16.5154L27.3662 15.5084L26.2544 16.5154L75.0688 70.4122C75.2519 70.6143 75.2392 70.9259 75.0403 71.1125L62.9582 82.4447C62.7543 82.6359 62.4333 82.6228 62.2456 82.4156L13.4312 28.5188Z" fill="white" stroke="black" stroke-width="3"/>
<path d="M68 14.9352C68 14.797 68.0572 14.665 68.1579 14.5705L79.158 4.25322C79.4772 3.95374 80 4.18013 80 4.61792V70.0648C80 70.203 79.9428 70.335 79.8421 70.4295L80.8682 71.5236L79.8421 70.4295L68.842 80.7468C68.5228 81.0463 68 80.8199 68 80.3821V14.9352Z" fill="white" stroke="black" stroke-width="3"/>
<path d="M75.5 14.9352C75.5 14.797 75.5572 14.665 75.6579 14.5705L86.658 4.25322C86.9772 3.95374 87.5 4.18013 87.5 4.61792V70.0648C87.5 70.203 87.4428 70.335 87.3421 70.4295L88.3682 71.5236L87.3421 70.4295L76.342 80.7468C76.0228 81.0463 75.5 80.8199 75.5 80.3821V14.9352Z" fill="white" stroke="black" stroke-width="3"/>
</svg>
